<svg width="120" height="165" viewBox="0 0 120 165" fill="none" xmlns="http://www.w3.org/2000/svg">
<path d="M0 165V143.303C4.74576 134.388 10.5085 126.399 17.2881 119.335C24.0678 112.271 31.6102 105.038 39.9153 97.6376C46.8644 91.4144 52.4576 86.2844 56.6949 82.2477C61.1017 78.211 64.322 74.4266 66.3559 70.8945C68.5593 67.1942 69.661 62.9893 69.661 58.2798C69.661 46.3379 61.7797 40.367 46.017 40.367C38.7288 40.367 31.6102 41.208 24.661 42.8899C17.8814 44.5719 11.4407 46.6743 5.33898 49.1973V8.83028C12.2881 6.13914 20.4237 4.0367 29.7458 2.52293C39.0678 0.840978 48.4746 0 57.9661 0C78.3051 0 93.4746 4.79358 103.475 14.3807C113.475 23.7997 118.475 36.4985 118.475 52.4771C118.475 60.0459 117.542 66.6055 115.678 72.156C113.983 77.5382 111.271 82.5 107.542 87.0413C103.814 91.5826 98.9831 96.4603 93.0508 101.674C87.7966 106.216 82.6271 110.757 77.5424 115.298C72.4576 119.839 68.3898 124.297 65.339 128.67H120V165H0Z" fill="#FFF0F2"/>
</svg>
