<svg width="120" height="165" viewBox="0 0 120 165" fill="none" xmlns="http://www.w3.org/2000/svg">
<path d="M52.3141 165C47.686 165 42.0661 164.586 35.4545 163.758C28.843 163.095 22.3141 162.101 15.8678 160.776C9.58678 159.45 4.29752 157.959 0 156.303V119.029C7.10744 122.176 14.7107 124.495 22.8099 125.986C30.9091 127.312 38.2645 127.974 44.876 127.974C54.1322 127.974 60.9917 126.815 65.4545 124.495C70.0826 122.176 72.3967 117.869 72.3967 111.574C72.3967 102.297 65.124 97.6581 50.5785 97.6581H23.5537L26.5289 66.3479H49.0909C56.3636 66.3479 61.5703 65.1882 64.7107 62.869C67.8512 60.5497 69.4215 56.8223 69.4215 51.6867C69.4215 46.8825 67.3554 43.238 63.2231 40.753C59.2562 38.2681 52.7273 37.0256 43.6364 37.0256C36.3636 37.0256 29.0083 37.8539 21.5702 39.5105C14.1322 41.1672 7.7686 43.3208 2.47934 45.9714V8.94579C8.59504 6.46085 16.1983 4.39007 25.2893 2.73344C34.3802 0.911147 43.4711 0 52.562 0C66.4463 0 78.1818 1.98795 87.7686 5.96385C97.3554 9.93976 104.628 15.4066 109.587 22.3645C114.545 29.3223 117.025 37.2741 117.025 46.2199C117.025 53.8404 115.537 60.7982 112.562 67.0934C109.752 73.3885 105.537 78.3584 99.9174 82.003C113.306 87.6355 120 98.8178 120 115.55C120 126.98 117.025 136.34 111.074 143.63C105.289 150.919 97.2727 156.303 87.0248 159.782C76.9422 163.261 65.3719 165 52.3141 165Z" fill="#FFF0F2"/>
</svg>
