<svg width="254" height="262" viewBox="0 0 254 262" fill="none" xmlns="http://www.w3.org/2000/svg">
<path d="M69.6889 184.149L68.6255 185.207L69.6889 184.149ZM252.95 252.16C253.591 251.636 253.685 250.691 253.16 250.05L244.607 239.605C244.082 238.964 243.137 238.87 242.496 239.395C241.855 239.92 241.761 240.865 242.286 241.506L249.889 250.79L240.605 258.393C239.964 258.918 239.87 259.863 240.395 260.504C240.92 261.145 241.865 261.239 242.506 260.714L252.95 252.16ZM2 1C0.508958 1.16369 0.509041 1.16445 0.509179 1.1657C0.509297 1.16677 0.509489 1.16851 0.509727 1.17066C0.510201 1.17495 0.510893 1.1812 0.511806 1.18941C0.513631 1.20582 0.516337 1.23004 0.519934 1.26196C0.527128 1.3258 0.53789 1.42046 0.552315 1.54517C0.581166 1.79459 0.624671 2.16418 0.683597 2.6477C0.801447 3.61471 0.980987 5.03744 1.22835 6.86582C1.72306 10.5225 2.48913 15.8022 3.57565 22.3044C5.74838 35.3068 9.20409 53.2066 14.3367 72.795C24.5805 111.889 41.5805 158.023 68.6255 185.207L70.7523 183.091C44.3128 156.516 27.4683 111.075 17.2388 72.0346C12.1348 52.5555 8.6966 34.748 6.53462 21.8099C5.45378 15.3418 4.69228 10.093 4.20127 6.46361C3.95576 4.64899 3.7779 3.23936 3.66156 2.28477C3.60339 1.80748 3.56061 1.44395 3.53244 1.20046C3.51836 1.07871 3.50793 0.986967 3.50106 0.926015C3.49763 0.89554 3.49509 0.872761 3.49342 0.857779C3.49259 0.850287 3.49197 0.844744 3.49158 0.841163C3.49138 0.839372 3.49125 0.83816 3.49115 0.837263C3.49107 0.836542 3.49104 0.836313 2 1ZM68.6255 185.207C95.8244 212.546 141.754 229.336 180.64 239.299C200.124 244.292 217.919 247.589 230.842 249.638C237.305 250.663 242.551 251.376 246.185 251.833C248.002 252.062 249.416 252.226 250.376 252.334C250.857 252.388 251.224 252.427 251.472 252.453C251.596 252.466 251.69 252.476 251.754 252.483C251.785 252.486 251.809 252.488 251.826 252.49C251.834 252.491 251.84 252.492 251.844 252.492C251.847 252.492 251.848 252.492 251.849 252.492C251.851 252.493 251.851 252.493 252 251C252.149 249.507 252.148 249.507 252.148 249.507C252.147 249.507 252.146 249.507 252.144 249.507C252.14 249.507 252.135 249.506 252.127 249.505C252.112 249.504 252.09 249.501 252.06 249.498C251.999 249.492 251.908 249.483 251.787 249.47C251.545 249.444 251.184 249.406 250.71 249.352C249.762 249.246 248.362 249.083 246.559 248.856C242.954 248.403 237.739 247.694 231.312 246.675C218.455 244.636 200.756 241.357 181.385 236.393C142.561 226.446 97.3355 209.811 70.7523 183.091L68.6255 185.207Z" fill="#E6163B"/>
</svg>
