<svg width="149" height="164" viewBox="0 0 149 164" fill="none" xmlns="http://www.w3.org/2000/svg">
<path d="M120.947 71.0196L121.323 71.9463L121.335 71.941L120.947 71.0196ZM35.2912 88.2063L35.7772 89.0803L35.2912 88.2063ZM7.57701 163.761C7.99719 164.119 8.62838 164.069 8.9868 163.649L14.8276 156.802C15.1861 156.382 15.136 155.75 14.7158 155.392C14.2956 155.034 13.6644 155.084 13.306 155.504L8.11417 161.59L2.02774 156.398C1.60756 156.04 0.976376 156.09 0.617953 156.51C0.259531 156.93 0.309596 157.562 0.729776 157.92L7.57701 163.761ZM147.056 1C146.068 1.15342 146.068 1.15332 146.068 1.15342C146.068 1.15374 146.068 1.15405 146.068 1.15469C146.068 1.15595 146.069 1.15805 146.069 1.16098C146.07 1.16684 146.072 1.17603 146.073 1.1885C146.077 1.21345 146.083 1.25152 146.09 1.30236C146.105 1.40403 146.126 1.55673 146.153 1.75754C146.207 2.15917 146.281 2.75312 146.364 3.51598C146.529 5.0419 146.728 7.24242 146.859 9.93036C147.12 15.3097 147.11 22.6238 146.026 30.3813C143.852 45.9515 137.411 62.9892 120.558 70.0983L121.335 71.941C139.19 64.4096 145.804 46.4375 148.007 30.658C149.113 22.7406 149.122 15.2949 148.856 9.83315C148.723 7.10053 148.521 4.86018 148.352 3.30036C148.267 2.52035 148.191 1.91022 148.136 1.49348C148.108 1.2851 148.085 1.12505 148.07 1.01626C148.062 0.961868 148.056 0.920286 148.051 0.891884C148.049 0.877683 148.048 0.866776 148.046 0.85921C148.046 0.855428 148.045 0.85248 148.045 0.850373C148.045 0.84932 148.045 0.848371 148.045 0.847844C148.044 0.847107 148.044 0.84658 147.056 1ZM120.571 70.093C99.5627 78.6186 85.2391 79.0481 72.6418 79.2643C59.9938 79.4814 48.9389 79.4745 34.8053 87.3323L35.7772 89.0803C49.4333 81.4879 60.0313 81.481 72.6761 81.264C85.3717 81.0461 99.9809 80.6073 121.323 71.9463L120.571 70.093ZM34.8053 87.3323C18.5822 96.3518 11.7476 115.46 8.92133 132.024C7.5022 140.341 7.07941 148.097 7.01069 153.772C6.97631 156.611 7.03049 158.932 7.09345 160.546C7.12494 161.353 7.15862 161.983 7.18455 162.413C7.19751 162.628 7.20854 162.793 7.21638 162.905C7.22031 162.961 7.22343 163.004 7.22561 163.033C7.2267 163.048 7.22755 163.059 7.22814 163.066C7.22843 163.07 7.22867 163.073 7.22883 163.075C7.22891 163.076 7.22899 163.077 7.22903 163.078C7.22909 163.079 7.22913 163.079 8.22599 163C9.22286 162.921 9.22287 162.921 9.22286 162.921C9.22283 162.92 9.2228 162.92 9.22275 162.919C9.22264 162.918 9.22247 162.916 9.22223 162.913C9.22175 162.907 9.22102 162.897 9.22004 162.884C9.2181 162.858 9.21519 162.818 9.21149 162.765C9.20409 162.66 9.19349 162.501 9.18092 162.293C9.1558 161.876 9.12283 161.26 9.09193 160.468C9.03013 158.884 8.97662 156.597 9.01054 153.796C9.0784 148.193 9.49616 140.546 10.8928 132.36C13.6981 115.92 20.3961 97.6316 35.7772 89.0803L34.8053 87.3323Z" fill="#E6163B"/>
</svg>
