<svg width="254" height="262" viewBox="0 0 254 262" fill="none" xmlns="http://www.w3.org/2000/svg">
<path d="M184.311 184.149L185.374 185.207L184.311 184.149ZM0.839505 250.05C0.314616 250.691 0.408681 251.636 1.0496 252.16L11.4941 260.714C12.135 261.239 13.0801 261.145 13.6049 260.504C14.1298 259.863 14.0358 258.918 13.3948 258.393L4.11089 250.79L11.7141 241.506C12.2389 240.865 12.1449 239.92 11.504 239.395C10.863 238.87 9.91796 238.964 9.39307 239.605L0.839505 250.05ZM252 1C250.509 0.836314 250.509 0.836542 250.509 0.837263C250.509 0.83816 250.509 0.839372 250.508 0.841163C250.508 0.844745 250.507 0.850287 250.507 0.857779C250.505 0.872762 250.502 0.89554 250.499 0.926015C250.492 0.986967 250.482 1.07871 250.468 1.20046C250.439 1.44395 250.397 1.80748 250.338 2.28477C250.222 3.23936 250.044 4.64899 249.799 6.46361C249.308 10.093 248.546 15.3418 247.465 21.8099C245.303 34.748 241.865 52.5555 236.761 72.0346C226.532 111.075 209.687 156.516 183.248 183.091L185.374 185.207C212.42 158.023 229.419 111.889 239.663 72.795C244.796 53.2066 248.252 35.3068 250.424 22.3044C251.511 15.8022 252.277 10.5225 252.772 6.86582C253.019 5.03744 253.199 3.61471 253.316 2.6477C253.375 2.16418 253.419 1.79459 253.448 1.54517C253.462 1.42046 253.473 1.3258 253.48 1.26196C253.484 1.23004 253.486 1.20582 253.488 1.18941C253.489 1.1812 253.49 1.17495 253.49 1.17066C253.491 1.16851 253.491 1.16677 253.491 1.1657C253.491 1.16445 253.491 1.16369 252 1ZM183.248 183.091C156.665 209.811 111.439 226.446 72.615 236.393C53.2439 241.357 35.5447 244.636 22.6881 246.675C16.2607 247.694 11.0459 248.403 7.44053 248.856C5.63789 249.083 4.23772 249.246 3.28963 249.352C2.81559 249.406 2.45459 249.444 2.21282 249.47C2.09193 249.483 2.00086 249.492 1.94037 249.498C1.91013 249.501 1.88753 249.504 1.87267 249.505C1.86525 249.506 1.85976 249.507 1.85621 249.507C1.85444 249.507 1.85325 249.507 1.85236 249.507C1.85165 249.507 1.85144 249.507 2 251C2.14856 252.493 2.14933 252.493 2.15058 252.492C2.15165 252.492 2.15339 252.492 2.15553 252.492C2.15981 252.492 2.16604 252.491 2.1742 252.49C2.19053 252.488 2.21461 252.486 2.24635 252.483C2.30983 252.476 2.40393 252.466 2.52787 252.453C2.77576 252.427 3.14304 252.388 3.62351 252.334C4.58443 252.226 5.99816 252.062 7.81502 251.833C11.4486 251.376 16.6954 250.663 23.1579 249.638C36.0812 247.589 53.8756 244.292 73.3596 239.299C112.246 229.336 158.176 212.546 185.374 185.207L183.248 183.091Z" fill="#E6163B"/>
</svg>
