<svg width="149" height="164" viewBox="0 0 149 164" fill="none" xmlns="http://www.w3.org/2000/svg">
<path d="M28.0534 71.0196L27.6773 71.9463L27.6647 71.941L28.0534 71.0196ZM113.709 88.2063L113.223 89.0803L113.709 88.2063ZM141.423 163.761C141.003 164.119 140.372 164.069 140.013 163.649L134.172 156.802C133.814 156.382 133.864 155.75 134.284 155.392C134.704 155.034 135.336 155.084 135.694 155.504L140.886 161.59L146.972 156.398C147.392 156.04 148.024 156.09 148.382 156.51C148.74 156.93 148.69 157.562 148.27 157.92L141.423 163.761ZM1.94376 1C2.93192 1.15342 2.93193 1.15332 2.93192 1.15342C2.93187 1.15374 2.93182 1.15405 2.93172 1.15469C2.93153 1.15595 2.9312 1.15805 2.93076 1.16098C2.92987 1.16684 2.92847 1.17603 2.92659 1.1885C2.92285 1.21345 2.91722 1.25152 2.90987 1.30236C2.89517 1.40403 2.87366 1.55673 2.84691 1.75754C2.79343 2.15917 2.71899 2.75312 2.63628 3.51598C2.47079 5.0419 2.27223 7.24242 2.14143 9.93036C1.87968 15.3097 1.89027 22.6238 2.97359 30.3813C5.1479 45.9515 11.5888 62.9892 28.442 70.0983L27.6647 71.941C9.81027 64.4096 3.19637 46.4375 0.992798 30.658C-0.112823 22.7406 -0.121964 15.2949 0.143799 9.83315C0.276764 7.10053 0.478775 4.86018 0.647919 3.30036C0.732513 2.52035 0.808914 1.91022 0.864426 1.49348C0.892181 1.2851 0.914703 1.12505 0.930435 1.01626C0.938293 0.961868 0.944458 0.920286 0.948715 0.891884C0.950851 0.877683 0.952499 0.866776 0.953659 0.85921C0.954239 0.855428 0.954681 0.85248 0.955002 0.850373C0.95517 0.84932 0.955322 0.848371 0.955399 0.847844C0.955521 0.847107 0.955597 0.84658 1.94376 1ZM28.4294 70.093C49.4373 78.6186 63.7609 79.0481 76.3582 79.2643C89.0062 79.4814 100.061 79.4745 114.195 87.3323L113.223 89.0803C99.5667 81.4879 88.9687 81.481 76.3239 81.264C63.6283 81.0461 49.0191 80.6073 27.6773 71.9463L28.4294 70.093ZM114.195 87.3323C130.418 96.3518 137.252 115.46 140.079 132.024C141.498 140.341 141.921 148.097 141.989 153.772C142.024 156.611 141.97 158.932 141.907 160.546C141.875 161.353 141.841 161.983 141.815 162.413C141.802 162.628 141.791 162.793 141.784 162.905C141.78 162.961 141.777 163.004 141.774 163.033C141.773 163.048 141.772 163.059 141.772 163.066C141.772 163.07 141.771 163.073 141.771 163.075C141.771 163.076 141.771 163.077 141.771 163.078C141.771 163.079 141.771 163.079 140.774 163C139.777 162.921 139.777 162.921 139.777 162.921C139.777 162.92 139.777 162.92 139.777 162.919C139.777 162.918 139.778 162.916 139.778 162.913C139.778 162.907 139.779 162.897 139.78 162.884C139.782 162.858 139.785 162.818 139.789 162.765C139.796 162.66 139.807 162.501 139.819 162.293C139.844 161.876 139.877 161.26 139.908 160.468C139.97 158.884 140.023 156.597 139.989 153.796C139.922 148.193 139.504 140.546 138.107 132.36C135.302 115.92 128.604 97.6316 113.223 89.0803L114.195 87.3323Z" fill="#E6163B"/>
</svg>
