<svg width="40" height="40" viewBox="0 0 40 40" fill="none" xmlns="http://www.w3.org/2000/svg">
<path d="M20 0C8.9543 0 0 8.9543 0 20C0 31.0457 8.9543 40 20 40C31.0457 40 40 31.0457 40 20C40 8.9543 31.0457 0 20 0ZM20 38.1818C9.95844 38.1818 1.8182 30.0416 1.8182 20C1.8182 9.95844 9.95844 1.8182 20 1.8182C30.0416 1.8182 38.1818 9.95844 38.1818 20C38.1818 30.0416 30.0416 38.1818 20 38.1818Z" fill="#101A5F"/>
<path d="M20 38.1818C9.95844 38.1818 1.8182 30.0416 1.8182 20C1.8182 9.95844 9.95844 1.8182 20 1.8182C30.0416 1.8182 38.1818 9.95844 38.1818 20C38.1818 30.0416 30.0416 38.1818 20 38.1818Z" fill="#101A5F"/>
<path fill-rule="evenodd" clip-rule="evenodd" d="M14.5 17.1902H17.744V14.4347C17.744 11.2394 19.7137 9.50017 22.5917 9.50017C23.5631 9.49675 24.534 9.54591 25.5 9.64741V12.9871H23.5153C21.9495 12.9871 21.6463 13.724 21.6463 14.8056V17.1902H25.3901L24.9023 20.9346H21.6465V30.5H17.744V20.9346H14.5V17.1902Z" fill="white"/>
<path d="M14.5 17.1902H17.744V14.4347C17.744 11.2394 19.7137 9.50017 22.5917 9.50017C23.5631 9.49675 24.534 9.54591 25.5 9.64741V12.9871H23.5153C21.9495 12.9871 21.6463 13.724 21.6463 14.8056V17.1902H25.3901L24.9023 20.9346H21.6465V30.5H17.744V20.9346H14.5V17.1902Z" fill="white"/>
</svg>
