<svg width="40" height="40" viewBox="0 0 40 40" fill="none" xmlns="http://www.w3.org/2000/svg">
<path d="M20 0C8.9543 0 0 8.9543 0 20C0 31.0457 8.9543 40 20 40C31.0457 40 40 31.0457 40 20C40 8.9543 31.0457 0 20 0ZM20 38.1818C9.95844 38.1818 1.8182 30.0416 1.8182 20C1.8182 9.95844 9.95844 1.8182 20 1.8182C30.0416 1.8182 38.1818 9.95844 38.1818 20C38.1818 30.0416 30.0416 38.1818 20 38.1818Z" fill="white"/>
<path d="M20 38.1818C9.95844 38.1818 1.8182 30.0416 1.8182 20C1.8182 9.95844 9.95844 1.8182 20 1.8182C30.0416 1.8182 38.1818 9.95844 38.1818 20C38.1818 30.0416 30.0416 38.1818 20 38.1818Z" fill="white"/>
<g clip-path="url(#clip0_503_107)">
<path d="M20.1968 30.0001C20.1306 30.0001 20.0644 30.0001 19.9977 29.9997C18.43 30.0036 16.9815 29.9637 15.5728 29.878C14.2813 29.7994 13.1024 29.3531 12.1634 28.5874C11.2573 27.8486 10.6386 26.8496 10.3244 25.6185C10.051 24.5467 10.0365 23.4946 10.0226 22.477C10.0125 21.7469 10.0021 20.8817 10 20.0019C10.0021 19.1184 10.0125 18.2532 10.0226 17.5231C10.0365 16.5056 10.051 15.4535 10.3244 14.3816C10.6386 13.1505 11.2573 12.1515 12.1634 11.4127C13.1024 10.647 14.2813 10.2007 15.573 10.1221C16.9817 10.0365 18.4305 9.99654 20.0015 10.0004C21.5697 9.997 23.0177 10.0365 24.4264 10.1221C25.7179 10.2007 26.8968 10.647 27.8358 11.4127C28.7421 12.1515 29.3607 13.1505 29.6748 14.3816C29.9483 15.4534 29.9628 16.5056 29.9767 17.5231C29.9867 18.2532 29.9973 19.1184 29.9992 19.9982V20.0019C29.9973 20.8817 29.9867 21.7469 29.9767 22.477C29.9628 23.4945 29.9484 24.5466 29.6748 25.6185C29.3607 26.8496 28.7421 27.8486 27.8358 28.5874C26.8968 29.3531 25.7179 29.7994 24.4264 29.878C23.0774 29.9601 21.6916 30.0001 20.1968 30.0001ZM19.9977 28.4372C21.5399 28.4409 22.9559 28.402 24.3315 28.3184C25.3081 28.259 26.1548 27.9421 26.8484 27.3765C27.4896 26.8535 27.9312 26.1321 28.1609 25.2321C28.3885 24.34 28.4016 23.382 28.4143 22.4556C28.4242 21.7304 28.4346 20.8713 28.4367 20.0001C28.4346 19.1286 28.4242 18.2697 28.4143 17.5445C28.4016 16.6181 28.3885 15.6601 28.1609 14.7678C27.9312 13.8678 27.4896 13.1464 26.8484 12.6235C26.1548 12.058 25.3081 11.7411 24.3315 11.6817C22.9559 11.598 21.5399 11.5593 20.0014 11.5627C18.4595 11.559 17.0433 11.598 15.6677 11.6817C14.6912 11.7411 13.8445 12.058 13.1508 12.6235C12.5096 13.1464 12.068 13.8678 11.8384 14.7678C11.6107 15.6601 11.5976 16.6179 11.5849 17.5445C11.575 18.2703 11.5646 19.1298 11.5625 20.0019C11.5646 20.8701 11.575 21.7298 11.5849 22.4556C11.5976 23.382 11.6107 24.34 11.8384 25.2321C12.068 26.1321 12.5096 26.8535 13.1508 27.3765C13.8445 27.9419 14.6912 28.2589 15.6677 28.3182C17.0433 28.402 18.4598 28.4411 19.9977 28.4372ZM19.9605 24.8829C17.2682 24.8829 15.0777 22.6925 15.0777 20.0001C15.0777 17.3076 17.2682 15.1172 19.9605 15.1172C22.6529 15.1172 24.8433 17.3076 24.8433 20.0001C24.8433 22.6925 22.6529 24.8829 19.9605 24.8829ZM19.9605 16.6797C18.1297 16.6797 16.6402 18.1693 16.6402 20.0001C16.6402 21.8308 18.1297 23.3204 19.9605 23.3204C21.7914 23.3204 23.2808 21.8308 23.2808 20.0001C23.2808 18.1693 21.7914 16.6797 19.9605 16.6797ZM25.3902 13.5547C24.743 13.5547 24.2183 14.0793 24.2183 14.7266C24.2183 15.3739 24.743 15.8985 25.3902 15.8985C26.0374 15.8985 26.562 15.3739 26.562 14.7266C26.562 14.0793 26.0374 13.5547 25.3902 13.5547Z" fill="#101A5F"/>
</g>
<defs>
<clipPath id="clip0_503_107">
<rect width="20" height="20" fill="white" transform="translate(10 10)"/>
</clipPath>
</defs>
</svg>
